<svg id="Capa_1" enable-background="new 0 0 512 512" height="512" viewBox="0 0 512 512" width="512" xmlns="http://www.w3.org/2000/svg"><circle cx="256" cy="256" fill="#a7e340" r="256"/><path d="m512 256c0-6.519-.244-12.98-.723-19.376l-157.154-157.154s-10.468 25.835-23.713 58.962l-54.419-54.419-7.891 16.639-28.45-28.45-103.09 292.374 49.646 49.646-20.266 20.778 76.655 76.655c4.44.229 8.909.345 13.406.345 141.384 0 255.999-114.615 255.999-256z" fill="#86c42b"/><path d="m198.767 60.391 40.883 11.811s.909 15.445 6.36 18.17c5.451 2.726 29.981-6.36 29.981-6.36s-12.719 28.164 0 29.981 39.975-23.621 55.42-26.801 15.445-13.173 22.713-7.722-4.543 18.17 5.451 29.073 26.347 24.53 21.804 49.968-6.36 42.7 7.268 69.047 13.628 48.151 0 50.877-59.962 12.719-71.773 34.524c-11.811 21.804 46.334 56.328 45.426 66.322s-33.615 25.438-32.707 36.341c.909 10.902 13.628 26.347-7.268 23.621s-40.883 17.262-47.243 11.811-6.36-15.445-23.621-8.177c-17.262 7.268-34.524-3.634-42.7-9.085-8.177-5.451-19.079-7.268-25.438 2.726s-20.896-4.543-20.896-4.543 4.543-42.7 23.621-56.328-32.707-11.811-44.517-9.994c-11.811 1.817-18.17-26.347-18.17-39.066s-4.543-34.524-9.085-53.603c-4.543-19.079 6.36-27.256 0-42.7s24.53-4.543 32.707-15.445-19.987-14.536-11.811-23.621c8.177-9.085 26.347-30.89 16.353-40.883-9.994-9.994-4.543-19.987 2.726-19.987 7.268 0 19.987 11.811 34.524 1.817 14.536-9.994.909-6.36 14.536-9.994 13.628-3.634 9.085-17.262 0-23.621-9.087-6.361-20.253-42.697-4.544-38.159z" fill="#fe6a16"/><path d="m388.647 227.558c-13.628-26.347-11.811-43.609-7.268-69.047s-11.811-39.066-21.804-49.968c-9.994-10.902 1.817-23.621-5.451-29.073-7.268-5.451-7.268 4.543-22.713 7.722-15.445 3.18-42.7 28.618-55.42 26.801-12.719-1.817 0-29.981 0-29.981s-11.204 4.147-20.152 5.996v351.274c12.937-3.857 13.474 4.825 19.243 9.771 6.36 5.451 26.347-14.536 47.243-11.811s8.177-12.719 7.268-23.621 31.798-26.347 32.707-36.341-57.237-44.517-45.426-66.322c11.811-21.804 58.145-31.798 71.773-34.524s13.628-24.529 0-50.876z" fill="#f24500"/><path d="m381.379 158.511c4.543-25.438-11.811-39.066-21.804-49.968-9.994-10.902 1.817-23.621-5.451-29.073-7.268-5.451-7.268 4.543-22.713 7.722-15.445 3.18-42.7 28.618-55.42 26.801-12.719-1.817 0-29.981 0-29.981s-24.53 9.085-29.981 6.36c-5.451-2.726-6.36-18.17-6.36-18.17l-40.883-11.811c-15.709-4.538-4.543 31.798 4.543 38.158 9.085 6.36 13.628 19.987 0 23.621s0 0-14.536 9.994-27.256-1.817-34.524-1.817-12.719 9.994-2.725 19.987c9.994 9.994-8.177 31.798-16.353 40.883-5.022 5.58 3.659 9.105 9.215 13.519h235.566c-3.508-15.263-1.68-28.834 1.426-46.225z" fill="#555a66"/><path d="m359.574 108.542c-9.994-10.902 1.817-23.622-5.451-29.073s-7.268 4.543-22.713 7.722c-15.445 3.18-42.7 28.618-55.42 26.801-12.719-1.817 0-29.981 0-29.981s-11.204 4.147-20.152 5.996v114.728h124.113c-3.507-15.264-1.678-28.835 1.427-46.226 4.543-25.437-11.81-39.064-21.804-49.967z" fill="#333940"/><path d="m328.895 343.796h-203.203c2.829 11.634 8.189 23.034 15.838 21.857 11.811-1.817 63.596-3.634 44.517 9.994s-23.621 56.328-23.621 56.328 14.536 14.536 20.896 4.543c6.36-9.994 17.262-8.177 25.438-2.725 8.177 5.451 25.438 16.353 42.7 9.085s17.262 2.726 23.621 8.177c6.36 5.451 26.347-14.536 47.243-11.811 20.896 2.726 8.177-12.719 7.268-23.621s31.798-26.347 32.707-36.341c.535-5.876-19.332-20.226-33.404-35.486z" fill="#ffe85f"/><path d="m328.895 343.796h-73.056v97.487c12.937-3.857 13.474 4.825 19.243 9.771 6.36 5.451 26.347-14.536 47.243-11.811 20.896 2.726 8.177-12.719 7.268-23.621s31.798-26.347 32.707-36.341c.534-5.875-19.333-20.225-33.405-35.485z" fill="#ffc200"/></svg>